<mxfile host="app.diagrams.net" modified="2022-11-18T08:14:48.213Z" agent="5.0 (Macintosh; Intel Mac OS X 10_15_7) AppleWebKit/537.36 (KHTML, like Gecko) Chrome/107.0.0.0 Safari/537.36" etag="cAQQTCGqvas8fQbzJZSv" version="20.5.3" type="github">
  <diagram id="ESfHzFhIp8_Np-J2azcc" name="Page-1">
    <mxGraphModel dx="2066" dy="1153" grid="1" gridSize="10" guides="1" tooltips="1" connect="1" arrows="1" fold="1" page="1" pageScale="1" pageWidth="850" pageHeight="1100" math="0" shadow="0">
      <root>
        <mxCell id="0" />
        <mxCell id="1" parent="0" />
        <mxCell id="DQuGTHQYeRv185xnL4Ju-9" style="edgeStyle=orthogonalEdgeStyle;rounded=0;orthogonalLoop=1;jettySize=auto;html=1;fontSize=18;" edge="1" parent="1" source="uScZJCT3d9wsoi-lr6Ei-2" target="DQuGTHQYeRv185xnL4Ju-8">
          <mxGeometry relative="1" as="geometry" />
        </mxCell>
        <mxCell id="uScZJCT3d9wsoi-lr6Ei-2" value="Pipeline" style="shape=process;whiteSpace=wrap;html=1;backgroundOutline=1;fontSize=18;" parent="1" vertex="1">
          <mxGeometry x="420" y="145" width="240" height="80" as="geometry" />
        </mxCell>
        <mxCell id="DQuGTHQYeRv185xnL4Ju-3" style="edgeStyle=orthogonalEdgeStyle;rounded=0;orthogonalLoop=1;jettySize=auto;html=1;fontSize=18;" edge="1" parent="1" source="DQuGTHQYeRv185xnL4Ju-1" target="uScZJCT3d9wsoi-lr6Ei-2">
          <mxGeometry relative="1" as="geometry">
            <Array as="points">
              <mxPoint x="520" y="90" />
            </Array>
          </mxGeometry>
        </mxCell>
        <mxCell id="DQuGTHQYeRv185xnL4Ju-1" value="Pipeline&lt;br&gt;Executor" style="rounded=1;whiteSpace=wrap;html=1;fontSize=18;" vertex="1" parent="1">
          <mxGeometry x="290" y="60" width="120" height="60" as="geometry" />
        </mxCell>
        <mxCell id="DQuGTHQYeRv185xnL4Ju-4" style="edgeStyle=orthogonalEdgeStyle;rounded=0;orthogonalLoop=1;jettySize=auto;html=1;entryX=0.41;entryY=1.013;entryDx=0;entryDy=0;fontSize=18;entryPerimeter=0;" edge="1" parent="1" source="DQuGTHQYeRv185xnL4Ju-2" target="uScZJCT3d9wsoi-lr6Ei-2">
          <mxGeometry relative="1" as="geometry" />
        </mxCell>
        <mxCell id="DQuGTHQYeRv185xnL4Ju-2" value="Pipeline&lt;br&gt;Invoker" style="rounded=1;whiteSpace=wrap;html=1;fontSize=18;" vertex="1" parent="1">
          <mxGeometry x="290" y="250" width="120" height="60" as="geometry" />
        </mxCell>
        <mxCell id="DQuGTHQYeRv185xnL4Ju-6" style="edgeStyle=orthogonalEdgeStyle;rounded=0;orthogonalLoop=1;jettySize=auto;html=1;entryX=0;entryY=0.5;entryDx=0;entryDy=0;fontSize=18;" edge="1" parent="1" source="DQuGTHQYeRv185xnL4Ju-5" target="DQuGTHQYeRv185xnL4Ju-1">
          <mxGeometry relative="1" as="geometry" />
        </mxCell>
        <mxCell id="DQuGTHQYeRv185xnL4Ju-7" style="edgeStyle=orthogonalEdgeStyle;rounded=0;orthogonalLoop=1;jettySize=auto;html=1;entryX=0;entryY=0.5;entryDx=0;entryDy=0;fontSize=18;" edge="1" parent="1" source="DQuGTHQYeRv185xnL4Ju-5" target="DQuGTHQYeRv185xnL4Ju-2">
          <mxGeometry relative="1" as="geometry" />
        </mxCell>
        <mxCell id="DQuGTHQYeRv185xnL4Ju-5" value="Context&lt;br&gt;(Serializable)" style="rounded=0;whiteSpace=wrap;html=1;fontSize=18;" vertex="1" parent="1">
          <mxGeometry x="110" y="155" width="120" height="60" as="geometry" />
        </mxCell>
        <mxCell id="DQuGTHQYeRv185xnL4Ju-8" value="Result" style="ellipse;whiteSpace=wrap;html=1;aspect=fixed;fontSize=18;" vertex="1" parent="1">
          <mxGeometry x="710" y="145" width="80" height="80" as="geometry" />
        </mxCell>
      </root>
    </mxGraphModel>
  </diagram>
</mxfile>
